<svg version="1" xmlns="http://www.w3.org/2000/svg" width="733.333" height="733.333" viewBox="0 0 550.000000 550.000000"><path d="M232.5 14.6c-9.8 2-13.4 2.8-15.5 3.7-1.4.5-3 1.1-3.7 1.3-1.5.3-10.6 4.7-15.7 7.7-4.5 2.5-16.8 14.2-21.3 20.2-4.7 6.2-9.2 15.9-11.3 24.3-1.7 6.8-2 11.4-2 40.1v32.4l-4.5-.6c-2.4-.4-6.9-1.5-9.9-2.5l-5.5-1.9-4.1 4.3c-2.2 2.3-4.9 6.3-6 8.9-1.8 4.1-1.8 4.9-.6 7.3.8 1.5 2.2 3.4 3.2 4.3 2.4 2 21.9 10.9 23.9 10.9.8 0 1.5.6 1.6 1.2.4 9.6.3 15-.2 15.3-.3.2-.7 2.8-.8 5.7-.1 4.1.3 5.8 1.8 7.5 1.1 1.1 1.8 2.2 1.7 2.4-.2.2-.6 3-.9 6.1-.3 4-.2 5.6.6 5.1.7-.4.8 0 .3 1.3-1.3 3.3-1.5 9.9-1.8 62.1-.2 28.2-.6 51.3-1 51.3s-.6.8-.6 1.7c.1 1-1.5 4.6-3.5 8-6.3 11.1-15.1 31.8-14.1 33.5.3.4.1.8-.5.8s-1.8 2.4-2.6 5.2c-3 9.5-6.3 22.2-6.9 26.3-.5 2.8-1.6 4.7-3.6 6.3-3.4 2.7-4.6 7.3-3.2 12.6.9 3.1.7 4.4-2 9.8-2.3 4.7-3.2 8.2-3.6 14-.3 5.7-.2 7.8.7 7.8.7 0 1 .4.7.9-1.4 2.2 7 7.1 12.2 7.1 2 0 3.3 1 4.9 3.4 2.6 4 7.7 6.6 13.1 6.6 4.4 0 12.1-4.8 12.9-8.1.3-1.1 2.2-2.7 4.1-3.5l3.6-1.5 5.1 5.3c9 9.4 20.7 16.7 34.9 21.6 5.1 1.8 8 3.3 8.2 4.4.1.8.5 2.9.8 4.5.7 2.9.6 3-4.6 4.1-6 1.4-15.4 5.5-18.1 8-3.2 2.9-4.7 6.9-4.8 12.4 0 8.1.1 8.7 1.9 9.7 2.4 1.3 36.7 1.3 42.2 0 13.2-3.1 50-3.9 59.3-1.3 11.2 3.1 16.4 3.6 29.2 3.1 7.2-.3 14.7-1 16.7-1.6 3.5-1.1 3.7-1.4 4-5.9.2-2.6 0-7.2-.4-10.2-.6-4.6-1.2-6-4.3-8.6-3.4-3-13.4-7.4-16.9-7.4-1.6 0-2-1.9-1-5.6.4-1.4 1.9-2.4 5.2-3.2 18.8-4.9 30.8-11.1 41.6-21.4 3.7-3.5 5.6-4.7 7.1-4.3 1.1.3 2.7.7 3.5.9.8.1 2.5 2 3.6 4.1 2.4 4.2 6.6 7.2 10.4 7.5 7.2.6 9.2 0 13.1-4 2.1-2.1 3.9-4.4 3.9-5 0-.5 1.6-1 3.6-1 4.5 0 10.8-3.4 12.3-6.7 2.4-5.2-.2-21.2-4.3-26.6-1-1.2-1.1-2.9-.5-6.1 1.1-6.1.3-9.7-2.7-12.2-2.2-1.8-3.3-4.8-6.4-17-4.6-18-10.8-34.2-19.2-50.7l-6.3-12.2-.2-17c-.1-9.4-.4-24.2-.7-33-.8-24.7-.7-82.6.2-86.5.4-1.9.5-5.7.1-8.5-.3-2.7-.2-5.8.3-6.8s.7-3.1.4-4.7c-.4-2.5 0-3 2.7-3.9 1.8-.6 3.5-1.1 3.9-1.1 4.1-.3 20.6-10.6 23.1-14.4 2.2-3.3 2.4-8.7.4-11.6-.9-1.2-3.7-4.1-6.3-6.2-3.6-2.9-5.4-3.8-7.3-3.4-1.4.3-6.3.8-10.8 1.2l-8.3.6v-21.8c-.1-40.2-.6-46.9-4.7-57.4-9.7-24.5-31.4-42.3-58.6-48-8.3-1.8-13.1-2-49.2-1.9-22 .1-40.9.3-42 .5z"/></svg>